<svg width="48" height="48" viewBox="0 0 48 48" fill="none" xmlns="http://www.w3.org/2000/svg">
<path d="M24.104 29.658L26.932 32.486L35.42 24L26.934 15.514L24.106 18.344L27.76 22L12.686 22L12.686 26L27.76 26L24.104 29.658Z" fill="white"/>
<path fill-rule="evenodd" clip-rule="evenodd" d="M39.556 39.556C48.148 30.964 48.148 17.036 39.556 8.444C30.964 -0.148 17.036 -0.148 8.444 8.444C-0.148 17.036 -0.148 30.964 8.444 39.556C17.036 48.148 30.964 48.148 39.556 39.556ZM36.728 36.728C40.1037 33.3523 42.0001 28.7739 42.0001 24C42.0001 19.2261 40.1037 14.6477 36.728 11.272C33.3523 7.89632 28.7739 5.99989 24 5.99989C19.2261 5.99989 14.6477 7.89632 11.272 11.272C7.89632 14.6477 5.99989 19.2261 5.99989 24C5.99989 28.7739 7.89632 33.3523 11.272 36.728C14.6477 40.1037 19.2261 42.0001 24 42.0001C28.7739 42.0001 33.3523 40.1037 36.728 36.728Z" fill="white"/>
</svg>
